#!OML:ASF F:\VICON\USERDATA\INSTALL\rory3\rory3.ASF
:FULLY-SPECIFIED
:DEGREES
287
root -0.941174 18.0238 -12.3368 -160.283 -15.9325 -183.79
lowerback -13.4498 -1.71781 -4.11483
upperback -9.31148 -3.13853 -0.321819
thorax -2.13208 -1.9513 1.63691
lowerneck -12.1985 -1.12432 -3.48801
upperneck 34.2369 -5.14127 3.28329
head 13.8184 -3.40693 0.863457
rclavicle 3.57378e-014 9.14409e-015
rhumerus 29.6998 32.5082 -67.7868
rradius 72.4049
rwrist -36.5356
rhand 12.3827 10.0322
rfingers 7.12502
rthumb 37.3826 -15.9324
lclavicle 3.57378e-014 9.14409e-015
lhumerus 74.0203 -46.6819 33.1118
lradius 78.3174
lwrist 19.1912
lhand -11.444 25.9611
lfingers 7.12502
lthumb 14.5927 55.4277
rfemur -46.5211 6.67083 15.1157
rtibia 43.9222
rfoot 5.05487 -31.8207
rtoes 22.5213
lfemur -15.1984 -4.06918 -26.0825
ltibia 33.4061
lfoot -8.17671 24.3427
ltoes -6.50053
288
root -0.932182 18.1515 -12.4576 -160.309 -16.141 -184.178
lowerback -12.6573 -1.56976 -4.21066
upperback -9.65425 -3.03516 -0.72698
thorax -2.94919 -1.90645 1.3308
lowerneck -10.625 -1.20942 -2.75473
upperneck 34.0028 -5.49493 2.85716
head 13.3486 -3.60134 0.537151
rclavicle 3.04141e-014 2.61775e-014
rhumerus 30.1554 31.9324 -66.8986
rradius 73.7747
rwrist -35.778
rhand 12.3953 10.5058
rfingers 7.12502
rthumb 37.3945 -15.4557
lclavicle 3.04141e-014 2.61775e-014
lhumerus 74.097 -46.3591 32.5397
lradius 79.4325
lwrist 18.2283
lhand -10.9696 26.3733
lfingers 7.12502
lthumb 15.0498 55.8063
rfemur -46.4374 5.77568 14.8501
rtibia 44.108
rfoot 7.89166 -32.1404
rtoes 21.5715
lfemur -16.5535 -3.78401 -26.6227
ltibia 33.3963
lfoot -6.36094 25.3357
ltoes -8.30799
289
root -0.92375 18.2653 -12.578 -160.253 -16.2771 -184.4
lowerback -13.0918 -1.54966 -4.41801
upperback -8.62076 -2.73094 -0.680583
thorax -1.61273 -1.69736 1.47187
lowerneck -12.4996 -1.57547 -3.08846
upperneck 34.1052 -5.62819 2.73522
head 13.8186 -3.59087 0.503294
rclavicle -4.77891e-014 -2.40529e-014
rhumerus 33.4644 30.4456 -63.8276
rradius 75.0727
rwrist -35.2638
rhand 11.4116 9.9587
rfingers 7.12502
rthumb 36.464 -16.2425
lclavicle -4.77891e-014 -2.40529e-014
lhumerus 76.5641 -43.6177 30.0813
lradius 83.7488
lwrist 17.7517
lhand -10.8923 30.0164
lfingers 7.12502
lthumb 15.1242 59.4438
rfemur -46.5306 4.68878 14.9011
rtibia 44.2966
rfoot 11.1344 -32.0959
rtoes 17.239
lfemur -18.0324 -3.53292 -27.0078
ltibia 33.4991
lfoot -6.86489 25.5654
ltoes -5.92452
290
root -0.895483 18.3625 -12.6981 -160.373 -16.3043 -183.849
lowerback -15.898 -1.81092 -4.78913
upperback -5.65134 -2.36911 0.160944
thorax 3.06029 -1.44495 2.42758
lowerneck -16.0757 -2.23401 -3.77081
upperneck 32.9888 -5.42511 2.49114
head 14.1238 -3.30877 0.546745
rclavicle 1.76988e-014 7.95139e-015
rhumerus 39.9693 27.6028 -58.9167
rradius 76.1106
rwrist -34.2257
rhand 10.2406 9.89777
rfingers 7.12502
rthumb 35.3545 -16.5748
lclavicle 1.76988e-014 7.95139e-015
lhumerus 79.4044 -38.2454 28.8576
lradius 85.6085
lwrist 17.5398
lhand -10.9051 29.7804
lfingers 7.12502
lthumb 15.1119 59.2088
rfemur -46.7503 5.07402 15.2685
rtibia 44.3955
rfoot 9.32474 -34.403
rtoes 24.9674
lfemur -19.6691 -3.37934 -26.5153
ltibia 33.7717
lfoot -9.86839 25.3248
ltoes 1.1471
291
root -0.874247 18.4539 -12.8139 -160.273 -16.3159 -183.548
lowerback -12.5654 -1.35882 -4.42137
upperback -9.1313 -2.57625 -0.0713369
thorax -2.42215 -1.6037 2.16385
lowerneck -9.41903 -1.31164 -3.24796
upperneck 33.4178 -5.40125 2.55084
head 12.8341 -3.66454 0.556688
rclavicle -4.05769e-014 5.96354e-016
rhumerus 34.9729 29.527 -61.2347
rradius 77.5471
rwrist -32.7375
rhand 10.7656 11.5129
rfingers 7.12502
rthumb 35.8521 -14.8398
lclavicle -4.05769e-014 5.96354e-016
lhumerus 75.9046 -42.366 30.3532
lradius 86.3758
lwrist 16.743
lhand -11.8465 27.9237
lfingers 7.12502
lthumb 14.2049 57.418
rfemur -47.1394 5.25606 15.324
rtibia 44.3761
rfoot 6.19667 -36.8386
rtoes 34.785
lfemur -21.5234 -3.39486 -26.2832
ltibia 34.2089
lfoot -11.605 25.4435
ltoes 2.94884
292
root -0.855759 18.5257 -12.9325 -159.894 -16.206 -183.657
lowerback -13.3258 -1.92988 -4.9766
upperback -7.75707 -2.95882 0.854562
thorax -0.456409 -1.71718 3.3172
lowerneck -12.6975 -1.43635 -5.00357
upperneck 33.4252 -4.5889 2.60733
head 13.5639 -3.31641 0.968286
rclavicle -4.20678e-014 -1.47101e-014
rhumerus 39.1667 28.9756 -59.5397
rradius 77.6285
rwrist -31.5189
rhand 11.8053 13.3223
rfingers 7.12502
rthumb 36.8366 -12.7842
lclavicle -4.20678e-014 -1.47101e-014
lhumerus 75.7946 -38.4493 30.7767
lradius 87.2239
lwrist 16.4318
lhand -12.8331 26.6974
lfingers 7.12502
lthumb 13.2541 56.256
rfemur -47.8186 4.4315 15.3939
rtibia 44.4274
rfoot 6.24146 -38.2144
rtoes 38.2556
lfemur -23.4991 -3.64924 -26.4618
ltibia 34.6043
lfoot -12.9957 25.8989
ltoes 3.10721
